<?xml version="1.0" encoding="utf-8"?>
<!-- Generator: Adobe Illustrator 17.0.0, SVG Export Plug-In . SVG Version: 6.00 Build 0)  -->
<!DOCTYPE svg PUBLIC "-//W3C//DTD SVG 1.1//EN" "http://www.w3.org/Graphics/SVG/1.1/DTD/svg11.dtd">
<svg version="1.1" id="Layer_1" xmlns="http://www.w3.org/2000/svg" xmlns:xlink="http://www.w3.org/1999/xlink" x="0px" y="0px"
	 width="130px" height="25px" viewBox="0 0 130 25" style="enable-background:new 0 0 130 25;" xml:space="preserve">
<g>
	<path style="fill:#404041;" d="M21.9,6.3c0.2,0,0.3-0.1,0.5-0.1c0.2,0,0.3,0,0.5,0c0.2,0,0.3,0,0.5,0c0.2,0,0.3,0,0.5,0.1
		c0,0.2,0.1,0.5,0.1,0.9c0,0.4,0.1,0.7,0.1,1c0.3-0.5,0.8-1,1.3-1.4c0.5-0.4,1.2-0.6,2-0.6c0.1,0,0.2,0,0.4,0c0.1,0,0.2,0,0.3,0
		c0,0.1,0.1,0.3,0.1,0.4c0,0.2,0,0.3,0,0.5c0,0.2,0,0.4,0,0.6c0,0.2-0.1,0.4-0.1,0.6c-0.1,0-0.3,0-0.4,0c-0.1,0-0.2,0-0.3,0
		c-0.4,0-0.8,0.1-1.2,0.2c-0.4,0.1-0.7,0.3-1,0.6c-0.3,0.3-0.5,0.7-0.7,1.2c-0.2,0.5-0.3,1.2-0.3,2v5.9c-0.2,0-0.4,0.1-0.6,0.1
		c-0.2,0-0.4,0-0.6,0c-0.2,0-0.4,0-0.6,0s-0.4,0-0.6-0.1V6.3z"/>
	<path style="fill:#404041;" d="M29.7,6.3c0.2,0,0.4-0.1,0.6-0.1c0.2,0,0.4,0,0.6,0c0.2,0,0.4,0,0.6,0c0.2,0,0.4,0,0.6,0.1v6.5
		c0,0.7,0.1,1.4,0.2,1.8c0.1,0.5,0.3,0.9,0.6,1.1c0.3,0.3,0.6,0.5,1,0.6c0.4,0.1,0.9,0.2,1.4,0.2c0.8,0,1.5-0.1,2-0.3v-10
		c0.2,0,0.4-0.1,0.6-0.1c0.2,0,0.4,0,0.6,0c0.2,0,0.4,0,0.6,0c0.2,0,0.4,0,0.6,0.1v11.5c-0.5,0.2-1.2,0.3-1.9,0.4
		c-0.7,0.1-1.5,0.2-2.3,0.2c-0.8,0-1.5-0.1-2.1-0.2c-0.7-0.1-1.3-0.4-1.8-0.8c-0.5-0.4-0.9-1-1.2-1.7c-0.3-0.7-0.4-1.7-0.4-2.9V6.3z
		"/>
	<path style="fill:#404041;" d="M41.2,6.3c0.2,0,0.3-0.1,0.5-0.1c0.2,0,0.3,0,0.5,0c0.2,0,0.3,0,0.5,0c0.1,0,0.3,0,0.5,0.1
		c0,0.2,0.1,0.5,0.1,0.9c0,0.4,0.1,0.7,0.1,1c0.2-0.3,0.4-0.5,0.6-0.8c0.2-0.3,0.5-0.5,0.8-0.7c0.3-0.2,0.7-0.4,1.1-0.5
		C46.2,6.1,46.7,6,47.2,6c1.4,0,2.4,0.4,3,1.2c0.6,0.8,1,1.9,1,3.5v7.5c-0.2,0-0.4,0.1-0.6,0.1c-0.2,0-0.4,0-0.6,0
		c-0.2,0-0.4,0-0.6,0c-0.2,0-0.4,0-0.6-0.1v-6.9c0-1.1-0.2-1.9-0.5-2.4c-0.3-0.5-0.9-0.8-1.6-0.8c-0.4,0-0.8,0.1-1.2,0.2
		c-0.4,0.2-0.7,0.4-1,0.7c-0.3,0.3-0.5,0.7-0.7,1.3c-0.2,0.5-0.3,1.1-0.3,1.9v6c-0.2,0-0.4,0.1-0.6,0.1c-0.2,0-0.4,0-0.6,0
		c-0.2,0-0.4,0-0.6,0c-0.2,0-0.4,0-0.6-0.1V6.3z"/>
	<path style="fill:#70BE44;" d="M53,6.3c0.2,0,0.3-0.1,0.5-0.1c0.2,0,0.3,0,0.5,0c0.2,0,0.3,0,0.5,0c0.1,0,0.3,0,0.5,0.1
		C55,6.5,55,6.8,55,7.2c0,0.4,0.1,0.7,0.1,1c0.1-0.3,0.3-0.5,0.5-0.8c0.2-0.3,0.5-0.5,0.7-0.7c0.3-0.2,0.6-0.4,1-0.5
		C57.7,6.1,58.1,6,58.6,6c0.9,0,1.6,0.2,2.1,0.6c0.5,0.4,0.9,0.9,1.1,1.6c0.2-0.3,0.3-0.5,0.6-0.8c0.2-0.3,0.5-0.5,0.8-0.7
		c0.3-0.2,0.6-0.4,0.9-0.5C64.5,6.1,64.9,6,65.3,6c1.4,0,2.4,0.4,3,1.2c0.6,0.8,0.9,1.9,0.9,3.4v7.6c-0.2,0-0.4,0.1-0.6,0.1
		s-0.4,0-0.6,0c-0.2,0-0.4,0-0.6,0c-0.2,0-0.4,0-0.6-0.1v-6.9c0-1.1-0.2-1.9-0.5-2.4c-0.3-0.5-0.9-0.8-1.6-0.8
		c-0.8,0-1.4,0.3-1.9,0.9c-0.5,0.6-0.7,1.4-0.7,2.5v6.7c-0.2,0-0.4,0.1-0.6,0.1s-0.4,0-0.6,0c-0.2,0-0.4,0-0.6,0
		c-0.2,0-0.4,0-0.6-0.1v-7c0-1-0.2-1.8-0.5-2.3C59.2,8.3,58.7,8,58.1,8c-0.4,0-0.7,0.1-1.1,0.3c-0.3,0.2-0.6,0.4-0.9,0.8
		c-0.3,0.3-0.5,0.8-0.6,1.3c-0.1,0.5-0.2,1.1-0.2,1.8v6.1c-0.2,0-0.4,0.1-0.6,0.1c-0.2,0-0.4,0-0.6,0c-0.2,0-0.4,0-0.6,0
		c-0.2,0-0.4,0-0.6-0.1V6.3z"/>
	<path style="fill:#70BE44;" d="M75.8,18.2c-0.1,0-0.3,0-0.4,0c-0.1,0-0.3,0-0.4,0c-0.2,0-0.3,0-0.5,0c-0.2,0-0.3,0-0.4,0L70.2,6.3
		c0.2,0,0.4,0,0.6-0.1c0.2,0,0.4,0,0.6,0c0.2,0,0.4,0,0.7,0c0.2,0,0.5,0,0.6,0.1l3.3,11l3.4-11c0.3,0,0.7-0.1,1.1-0.1
		c0.2,0,0.4,0,0.6,0c0.2,0,0.4,0,0.6,0.1l-4.6,14.3c-0.2,0.6-0.4,1.2-0.7,1.6c-0.2,0.4-0.5,0.8-0.8,1c-0.3,0.3-0.6,0.4-1,0.6
		c-0.4,0.1-0.8,0.2-1.3,0.2c-0.4,0-0.7,0-1.1-0.1c-0.3-0.1-0.7-0.1-0.9-0.2c0-0.4,0-0.7,0.1-0.9c0.1-0.3,0.2-0.6,0.3-0.8
		c0.1,0,0.3,0.1,0.6,0.2c0.2,0.1,0.5,0.1,0.8,0.1c0.2,0,0.4,0,0.6-0.1c0.2,0,0.3-0.1,0.5-0.2c0.2-0.1,0.3-0.3,0.4-0.5
		c0.1-0.2,0.3-0.5,0.4-0.9L75.8,18.2z"/>
	<path style="fill:#404041;" d="M90.9,16.1c0.1,0.2,0.2,0.5,0.3,0.8c0.1,0.3,0.1,0.7,0.2,1c-0.9,0.4-1.9,0.5-3.1,0.5
		c-2,0-3.5-0.6-4.5-1.7c-1-1.1-1.5-2.6-1.5-4.5c0-0.9,0.1-1.7,0.4-2.5c0.2-0.8,0.6-1.4,1.1-2c0.5-0.6,1.1-1,1.8-1.3
		C86.3,6.2,87.1,6,88.1,6c0.6,0,1.2,0,1.7,0.1c0.5,0.1,1,0.2,1.4,0.4c0,0.3,0,0.6-0.1,0.9c-0.1,0.3-0.2,0.7-0.3,0.9
		c-0.8-0.3-1.6-0.4-2.6-0.4c-1.2,0-2.1,0.4-2.7,1.2c-0.6,0.8-0.9,1.8-0.9,3.1c0,1.5,0.3,2.6,1,3.2c0.7,0.7,1.6,1,2.7,1
		c0.5,0,0.9,0,1.3-0.1C90.1,16.3,90.5,16.2,90.9,16.1z"/>
	<path style="fill:#404041;" d="M97.8,18.4c-0.9,0-1.7-0.2-2.4-0.5c-0.7-0.3-1.3-0.8-1.7-1.3c-0.5-0.6-0.8-1.2-1-2
		c-0.2-0.8-0.3-1.6-0.3-2.4c0-0.9,0.1-1.7,0.3-2.5c0.2-0.8,0.6-1.4,1-2c0.5-0.6,1-1,1.7-1.3C96.1,6.2,96.9,6,97.8,6
		c0.9,0,1.7,0.2,2.4,0.5c0.7,0.3,1.3,0.8,1.7,1.3c0.5,0.6,0.8,1.2,1,2c0.2,0.8,0.3,1.6,0.3,2.5c0,0.9-0.1,1.7-0.3,2.4
		c-0.2,0.8-0.6,1.4-1,2c-0.5,0.6-1,1-1.7,1.3C99.6,18.3,98.8,18.4,97.8,18.4z M97.8,16.6c1.1,0,1.8-0.4,2.4-1.2
		c0.5-0.8,0.8-1.8,0.8-3.2c0-1.4-0.3-2.4-0.8-3.2c-0.5-0.8-1.3-1.1-2.4-1.1c-1.1,0-1.8,0.4-2.3,1.1c-0.5,0.8-0.8,1.8-0.8,3.2
		c0,1.4,0.3,2.4,0.8,3.2C96,16.2,96.8,16.6,97.8,16.6z"/>
	<path style="fill:#404041;" d="M113,1.2c0.2,0,0.4-0.1,0.6-0.1c0.2,0,0.4,0,0.6,0c0.2,0,0.4,0,0.6,0c0.2,0,0.4,0,0.6,0.1v16.6
		c-0.6,0.2-1.2,0.3-2,0.4c-0.7,0.1-1.5,0.2-2.4,0.2c-0.8,0-1.6-0.1-2.4-0.3c-0.7-0.2-1.4-0.6-2-1c-0.6-0.5-1-1.1-1.3-1.8
		c-0.3-0.8-0.5-1.7-0.5-2.8c0-1,0.1-1.8,0.4-2.6c0.3-0.8,0.7-1.5,1.2-2c0.5-0.6,1.2-1,1.9-1.3c0.7-0.3,1.5-0.5,2.4-0.5
		c0.4,0,0.8,0,1.2,0.1c0.4,0.1,0.8,0.1,1.1,0.2V1.2z M113,8.3c-0.3-0.1-0.6-0.2-1-0.3c-0.4-0.1-0.7-0.1-1.2-0.1
		c-0.6,0-1.2,0.1-1.6,0.3c-0.5,0.2-0.8,0.5-1.1,0.9c-0.3,0.4-0.5,0.9-0.7,1.4c-0.1,0.5-0.2,1.1-0.2,1.8c0,1.5,0.4,2.5,1,3.1
		c0.7,0.6,1.6,0.9,2.8,0.9c0.4,0,0.8,0,1.1-0.1c0.3,0,0.6-0.1,0.9-0.2V8.3z"/>
	<path style="fill:#404041;" d="M119.4,12.8c0,1.3,0.4,2.2,1,2.8c0.6,0.6,1.6,0.9,2.8,0.9c1.1,0,2.1-0.2,3.1-0.6
		c0.1,0.2,0.2,0.5,0.3,0.8c0.1,0.3,0.1,0.7,0.1,1c-0.5,0.2-1.1,0.4-1.7,0.5c-0.6,0.1-1.3,0.2-2,0.2c-1.1,0-2-0.1-2.8-0.5
		c-0.8-0.3-1.4-0.7-1.9-1.3c-0.5-0.5-0.9-1.2-1.1-1.9c-0.2-0.7-0.3-1.6-0.3-2.5c0-0.9,0.1-1.7,0.3-2.5c0.2-0.8,0.6-1.4,1-2
		c0.5-0.6,1-1,1.7-1.3c0.7-0.3,1.5-0.5,2.5-0.5c0.8,0,1.5,0.1,2.1,0.4c0.6,0.3,1.1,0.7,1.5,1.1c0.4,0.5,0.7,1.1,0.9,1.7
		c0.2,0.7,0.3,1.4,0.3,2.2c0,0.2,0,0.4,0,0.7c0,0.2,0,0.4,0,0.6H119.4z M125.2,11.1c0-0.4-0.1-0.8-0.2-1.2c-0.1-0.4-0.3-0.7-0.5-1
		c-0.2-0.3-0.5-0.5-0.9-0.7c-0.3-0.2-0.8-0.3-1.2-0.3c-0.9,0-1.7,0.3-2.2,0.9c-0.5,0.6-0.8,1.4-0.9,2.4H125.2z"/>
</g>
<g>
	<linearGradient id="SVGID_1_" gradientUnits="userSpaceOnUse" x1="5.9076" y1="8.7892" x2="5.3842" y2="12.5131">
		<stop  offset="0" style="stop-color:#CEE29C"/>
		<stop  offset="1" style="stop-color:#29B473"/>
	</linearGradient>
	<path style="fill:url(#SVGID_1_);" d="M7.5,12.8c0.6,0,2-1.2,2-1.2L7.4,9H1.9C1.9,9,5.7,12.9,7.5,12.8z"/>
	<g>
		<linearGradient id="SVGID_2_" gradientUnits="userSpaceOnUse" x1="9.5096" y1="8.3399" x2="20.4286" y2="8.3399">
			<stop  offset="0.2" style="stop-color:#8BC53F"/>
			<stop  offset="1" style="stop-color:#29B473"/>
		</linearGradient>
		<polygon style="fill:url(#SVGID_2_);" points="20.4,1.7 9.5,11.5 12.4,15 20.4,1.7 		"/>
		<linearGradient id="SVGID_3_" gradientUnits="userSpaceOnUse" x1="8.9354" y1="17.7964" x2="12.1645" y2="14.4525">
			<stop  offset="0" style="stop-color:#29B473"/>
			<stop  offset="0.1641" style="stop-color:#3EB868"/>
			<stop  offset="0.5346" style="stop-color:#68BF52"/>
			<stop  offset="0.826" style="stop-color:#81C344"/>
			<stop  offset="1" style="stop-color:#8BC53F"/>
		</linearGradient>
		<path style="fill:url(#SVGID_3_);" d="M10,18.9l2.3-3.9l-1.3-1.6C10.3,15.2,9.9,17.1,10,18.9z"/>
	</g>
	<g>
		<linearGradient id="SVGID_4_" gradientUnits="userSpaceOnUse" x1="2.4552" y1="8.8072" x2="2.8424" y2="10.4843">
			<stop  offset="0" style="stop-color:#D5DF40"/>
			<stop  offset="1" style="stop-color:#009345"/>
		</linearGradient>
		<path style="fill:url(#SVGID_4_);" d="M3.4,10.4L1.9,8.9C1.9,8.9,2.5,9.6,3.4,10.4z"/>
		<linearGradient id="SVGID_5_" gradientUnits="userSpaceOnUse" x1="5.2422" y1="8.1638" x2="6.3675" y2="13.0381">
			<stop  offset="0" style="stop-color:#D6DE23"/>
			<stop  offset="1" style="stop-color:#29B473"/>
		</linearGradient>
		<path style="fill:url(#SVGID_5_);" d="M7.5,12.8c0.6,0,2-1.3,2-1.3l0,0c-2.4,0-7.6-2.5-7.6-2.5l1.5,1.4
			C4.7,11.5,6.5,12.8,7.5,12.8z"/>
		<linearGradient id="SVGID_6_" gradientUnits="userSpaceOnUse" x1="8.1534" y1="9.2582" x2="9.448" y2="14.8658">
			<stop  offset="0" style="stop-color:#D5DF40"/>
			<stop  offset="1" style="stop-color:#009345"/>
		</linearGradient>
		<path style="fill:url(#SVGID_6_);" d="M10,11.4c-0.1,0-0.3,0-0.5,0l0,0c0,0-1.4,1.2-2,1.3c-1.1,0.1-2.8-1.3-4.1-2.4l5.1,4.7
			l4.1-4.6c0.2-0.3,0.4-0.6,0.6-0.9C12.1,10.5,10.9,11.2,10,11.4z"/>
		<linearGradient id="SVGID_7_" gradientUnits="userSpaceOnUse" x1="4.5632" y1="19.506" x2="16.2933" y2="-8.1283">
			<stop  offset="0" style="stop-color:#D6DE23"/>
			<stop  offset="0.5212" style="stop-color:#8BC53F"/>
			<stop  offset="1" style="stop-color:#8BC53F"/>
		</linearGradient>
		<path style="fill:url(#SVGID_7_);" d="M9.5,11.5L9.5,11.5c0,0-1.4,1.3-2,1.3c-1.1,0.1-2.8-1.3-4.1-2.4C2.5,9.6,1.9,8.9,1.9,8.9
			l5.3,6.4l2.9,3.5c-0.2-1.8,0.3-3.7,1-5.5c0.4-1,1-2,1.6-2.9c0.2-0.3,0.4-0.6,0.6-0.9C15,7,17.1,4.8,18.6,3.3L9.5,11.5z"/>
	</g>
	<path style="fill:#006838;" d="M20.4,1.7"/>
</g>
</svg>
